<svg t="1608099859605" class="icon" viewBox="0 0 1024 1024" version="1.1" xmlns="http://www.w3.org/2000/svg" p-id="11511" width="200" height="200"><path d="M877.689404 0H146.297694C65.46917 0 0 65.540129 0 146.297694V877.760363c0 80.764017 65.46917 146.239637 146.310596 146.239637h731.39816c80.822074 0 146.304145-65.475621 146.304146-146.239637V146.297694C1023.993549 65.540129 958.53083 0 877.689404 0z" fill="#f66c32" p-id="11512" data-spm-anchor-id="a313x.7781069.0.i21" class="selected"></path><path d="M362.386594 856.517878c-106.457553 0-193.078896-83.492705-193.078896-186.105581 0-10.256772 8.618269-18.558952 19.249187-18.558952s19.255638 8.30218 19.255639 18.558952c0 82.144488 69.333199 148.987678 154.56762 148.987678 85.221519 0 154.561169-66.836739 154.561169-148.987678 0-10.256772 8.618269-18.558952 19.249187-18.558952s19.255638 8.30218 19.255638 18.558952c0.006451 102.612876-86.608441 186.105581-193.059544 186.105581z" fill="#FFFFFF" p-id="11513"></path><path d="M362.734938 856.569485c-16.44954 0-32.989391-2.038453-49.309916-6.160514-49.884037-12.624216-91.698123-43.201008-117.701298-86.131083-26.028978-42.89782-33.163563-93.020537-20.08134-141.111251 13.082223-48.103616 44.813708-88.401764 89.350031-113.476023 9.179488-5.147738 20.971551-2.186821 26.332166 6.663676 5.373516 8.844047 2.270682 20.216807-6.915258 25.383898-35.64067 20.068439-61.043921 52.335341-71.52002 90.840167-10.463198 38.504826-4.747789 78.622351 16.081845 112.979312 20.829633 34.356961 54.289933 58.837747 94.220385 68.946151 39.936903 10.101953 81.570367 4.586519 117.198136-15.481921 9.173038-5.167091 20.984453-2.206174 26.338616 6.650775 5.373516 8.844047 2.283583 20.210357-6.895905 25.390349a197.568653 197.568653 0 0 1-97.097442 25.506464z" fill="#FFFFFF" p-id="11514"></path><path d="M362.0318 856.569485a197.388031 197.388031 0 0 1-97.097442-25.512915c-9.185939-5.179992-12.275872-16.539851-6.908807-25.390349 5.367066-8.856948 17.178481-11.817866 26.338617-6.650774 35.647121 20.081341 77.274134 25.590324 117.217488 15.48192s73.403654-34.582739 94.233287-68.946151c20.829633-34.356961 26.52569-74.474487 16.056041-112.979312-10.476099-38.504826-35.885801-70.771727-71.526471-90.840167-9.185939-5.167091-12.275872-16.533401-6.915258-25.383898 5.360615-8.850498 17.165579-11.817866 26.332166-6.663676 44.529873 25.07426 76.267809 65.372408 89.356482 113.476023 13.082223 48.090714 5.96699 98.213431-20.055537 141.124153-26.009626 42.910722-67.823712 73.493965-117.714199 86.118181-16.333426 4.128512-32.873277 6.166965-49.316367 6.166965zM274.700869 544.279803c-10.630918 0-19.249187-8.30863-19.249187-18.558951V271.223888c0-10.250321 8.618269-18.558952 19.249187-18.558952s19.255638 8.30863 19.255638 18.558952v254.496964c0 10.250321-8.62472 18.558952-19.255638 18.558951z" fill="#FFFFFF" p-id="11515"></path><path d="M450.104574 544.279803c-10.624468 0-19.249187-8.30863-19.249188-18.558951V271.223888c0-10.250321 8.62472-18.558952 19.249188-18.558952 10.630918 0 19.255638 8.30863 19.255638 18.558952v254.496964c0 10.250321-8.618269 18.558952-19.255638 18.558951z" fill="#FFFFFF" p-id="11516"></path><path d="M450.104574 289.092604c-10.624468 0-19.249187-8.30863-19.249188-18.558951 0-36.382512-30.705808-65.985234-68.442988-65.985234S293.962958 234.15114 293.962958 270.533653c0 10.250321-8.62472 18.558952-19.255638 18.558951s-19.249187-8.30863-19.249187-18.558951c0-56.850901 47.981051-103.096686 106.960715-103.096687 58.973214 0 106.954265 46.245786 106.954265 103.096687-0.012902 10.250321-8.63117 18.558952-19.268539 18.558951z" fill="#FFFFFF" p-id="11517"></path><path d="M450.104574 309.502936H362.405947c-10.630918 0-19.255638-8.30863-19.255638-18.558952 0-10.250321 8.62472-18.558952 19.255638-18.558952h87.698627c10.630918 0 19.255638 8.30863 19.255638 18.558952 0 10.250321-8.618269 18.558952-19.255638 18.558952zM450.104574 373.578733H362.405947c-10.630918 0-19.255638-8.30863-19.255638-18.558952 0-10.250321 8.62472-18.558952 19.255638-18.558952h87.698627c10.630918 0 19.255638 8.30863 19.255638 18.558952 0 10.250321-8.618269 18.558952-19.255638 18.558952zM450.104574 436.751417H362.405947c-10.630918 0-19.255638-8.30863-19.255638-18.558951 0-10.250321 8.62472-18.558952 19.255638-18.558952h87.698627c10.630918 0 19.255638 8.30863 19.255638 18.558952 0 10.256772-8.618269 18.558952-19.255638 18.558951zM612.890513 455.710319c-29.409197 0-53.328764-23.068061-53.328764-51.419327 0-28.357717 23.919567-51.419327 53.328764-51.419328 29.42855 0 53.367469 23.068061 53.367469 51.419328 0.006451 28.357717-23.938919 51.419327-53.367469 51.419327z m0-65.7143c-8.173164 0-14.811037 6.418546-14.811037 14.301423s6.637873 14.301424 14.811037 14.301424c8.198967 0 14.862643-6.418546 14.862643-14.301424s-6.663676-14.301424-14.862643-14.301423zM660.871564 602.453118c-6.61207 0-13.049969-3.296359-16.630163-9.19239-16.256016-26.751468-20.713519-58.012045-12.566158-88.001814 8.160262-30.009122 27.957767-55.14789 55.754264-70.797531 27.764243-15.636739 60.192415-19.91362 91.278821-12.062996 31.112209 7.863525 57.186342 26.93209 73.410105 53.702911 5.373516 8.850498 2.270682 20.216807-6.915258 25.390349-9.160136 5.167091-20.958649 2.186821-26.325715-6.663677-11.037319-18.204158-28.770568-31.170266-49.929192-36.52443a84.079728 84.079728 0 0 0-62.088951 8.205418c-18.913746 10.64382-32.383016 27.744891-37.930704 48.148772-5.541237 20.390979-2.509361 41.646365 8.540859 59.837621 5.379967 8.844047 2.296485 20.216807-6.876553 25.390349a19.700743 19.700743 0 0 1-9.721355 2.567418z" fill="#FFFFFF" p-id="11518"></path><path d="M747.970266 650.776061c-21.094116 0-41.872143-5.379967-60.560111-15.914123-27.777145-15.662543-47.5682-40.79486-55.728462-70.771728-8.166713-29.99622-3.702759-61.256797 12.553257-88.021166 5.373516-8.850498 17.165579-11.804964 26.345068-6.637874 9.179488 5.173542 12.25652 16.546302 6.876552 25.390349-11.056671 18.204158-14.088547 39.453093-8.534408 59.844073 5.554139 20.39743 19.023409 37.498501 37.924254 48.155222a83.989417 83.989417 0 0 0 62.08895 8.211868c21.158624-5.354164 38.891874-18.333174 49.929192-36.537331 5.367066-8.850498 17.165579-11.817866 26.325715-6.663677 9.185939 5.179992 12.288774 16.539851 6.915258 25.390349-16.223762 26.77082-42.297896 45.845836-73.410105 53.709362a125.422905 125.422905 0 0 1-30.72516 3.844676z" fill="#FFFFFF" p-id="11519"></path></svg>